<svg xmlns="http://www.w3.org/2000/svg" viewBox="0 0 100 100">
  <defs>
    <radialGradient id="g" cx="32%" cy="26%" r="74%" gradientUnits="objectBoundingBox">
      <stop offset="0%"   stop-color="#FEF08A"/>
      <stop offset="20%"  stop-color="#FB923C"/>
      <stop offset="58%"  stop-color="#F97316"/>
      <stop offset="100%" stop-color="#92400E"/>
    </radialGradient>
    <radialGradient id="gl" cx="26%" cy="16%" r="52%" gradientUnits="objectBoundingBox">
      <stop offset="0%"   stop-color="white" stop-opacity="0.38"/>
      <stop offset="100%" stop-color="white" stop-opacity="0"/>
    </radialGradient>
  </defs>
  <!-- HD orange gear with transparent centre hole -->
  <path fill-rule="evenodd" fill="url(#g)"
    d="M43.7 17.6 L43.9 6.4 A44 44 0 0 1 56.1 6.4 L56.3 17.6
       A33 33 0 0 1 68.5 22.6 L76.5 14.9 A44 44 0 0 1 85.1 23.5 L77.4 31.6
       A33 33 0 0 1 82.4 43.7 L93.6 43.9 A44 44 0 0 1 93.6 56.1 L82.4 56.3
       A33 33 0 0 1 77.4 68.5 L85.1 76.5 A44 44 0 0 1 76.5 85.1 L68.5 77.4
       A33 33 0 0 1 56.3 82.4 L56.1 93.6 A44 44 0 0 1 43.9 93.6 L43.7 82.4
       A33 33 0 0 1 31.5 77.4 L23.5 85.1 A44 44 0 0 1 14.9 76.5 L22.6 68.5
       A33 33 0 0 1 17.6 56.3 L6.4 56.1 A44 44 0 0 1 6.4 43.9 L17.6 43.7
       A33 33 0 0 1 22.6 31.5 L14.9 23.5 A44 44 0 0 1 23.5 14.9 L31.5 22.6
       A33 33 0 0 1 43.7 17.6 Z
       M64 50 A14 14 0 1 0 36 50 A14 14 0 1 0 64 50 Z"/>
  <!-- Gloss sheen -->
  <path fill-rule="evenodd" fill="url(#gl)"
    d="M43.7 17.6 L43.9 6.4 A44 44 0 0 1 56.1 6.4 L56.3 17.6
       A33 33 0 0 1 68.5 22.6 L76.5 14.9 A44 44 0 0 1 85.1 23.5 L77.4 31.6
       A33 33 0 0 1 82.4 43.7 L93.6 43.9 A44 44 0 0 1 93.6 56.1 L82.4 56.3
       A33 33 0 0 1 77.4 68.5 L85.1 76.5 A44 44 0 0 1 76.5 85.1 L68.5 77.4
       A33 33 0 0 1 56.3 82.4 L56.1 93.6 A44 44 0 0 1 43.9 93.6 L43.7 82.4
       A33 33 0 0 1 31.5 77.4 L23.5 85.1 A44 44 0 0 1 14.9 76.5 L22.6 68.5
       A33 33 0 0 1 17.6 56.3 L6.4 56.1 A44 44 0 0 1 6.4 43.9 L17.6 43.7
       A33 33 0 0 1 22.6 31.5 L14.9 23.5 A44 44 0 0 1 23.5 14.9 L31.5 22.6
       A33 33 0 0 1 43.7 17.6 Z
       M64 50 A14 14 0 1 0 36 50 A14 14 0 1 0 64 50 Z"/>
</svg>
